<svg xmlns="http://www.w3.org/2000/svg" version="1.1" xmlns:xlink="http://www.w3.org/1999/xlink" xmlns:svgjs="http://svgjs.dev/svgjs" viewBox="0 0 800 800"><defs><linearGradient x1="50%" y1="0%" x2="50%" y2="100%" id="ccchaos-grad"><stop stop-color="hsl(265, 55%, 30%)" stop-opacity="1" offset="0%"></stop><stop stop-color="hsl(265, 55%, 60%)" stop-opacity="1" offset="100%"></stop></linearGradient></defs><g stroke-width="2" stroke="url(#ccchaos-grad)" fill="none" stroke-linecap="round"><path d="M388.22 101.33C397.82 102.94 407.52 105.48 417.33 108.82 427.17 112.45 437.14 116.68 447.23 121.38 457.37 126.06 467.67 131.01 478.12 136.13 488.65 140.96 499.35 145.84 510.18 150.7 521.09 155.13 532.13 159.51 543.23 163.83 554.34 167.71 565.43 171.58 576.4 175.47 587.22 179 597.76 182.65 607.86 186.47 617.56 190.06 626.61 193.93 634.81 198.1 642.33 202.2 648.79 206.69 654.03 211.58 658.39 216.51 661.43 221.9 663.08 227.73 663.89 233.66 663.43 240.04 661.8 246.86 659.73 253.79 656.88 261.14 653.48 268.85 650.38 276.67 647.32 284.82 644.61 293.27 643.03 301.78 642.33 310.55 642.72 319.52 644.79 328.53 648.14 337.71 652.74 347.02 658.87 356.35 665.93 365.78 673.58 375.28 681.85 384.79 689.72 394.14 696.78 403.33 703.24 412.53 708.15 421.58 711.29 430.48 713.02 439.43 712.68 448.27 710.3 457.03 706.39 465.89 700.63 474.72 693.25 483.56 684.79 492.58 675.18 501.67 664.74 510.88 653.94 520.32 642.8 529.94 631.58 539.75 620.63 549.83 609.93 560.11 599.64 570.57 589.97 581.25 580.81 592.05 572.18 602.87 564.24 613.75 556.75 624.49 549.65 634.95 543.12 645.15 536.81 654.81 530.62 663.73 524.8 672.03 518.93 679.3 512.92 685.36 507.1 690.47 501 694.18 494.59 696.37 488.22 697.51 481.45 697.14 474.27 695.31 467.07 692.68 459.42 688.86 451.32 684.06 443.19 679.08 434.62 673.63 425.62 667.98 416.61 662.97 407.18 658.33 397.37 654.3 387.56 651.6 377.62 649.88 367.61 649.15 357.63 649.83 347.6 651.35 337.57 653.53 327.6 656.68 317.66 660.08 307.81 663.46 298.05 667.13 288.41 670.32 278.97 672.8 269.65 674.93 260.56 676.01 251.77 675.93 243.15 675.12 234.87 673.01 226.99 669.63 219.33 665.42 212.1 660 205.35 653.49 198.83 646.27 192.8 638.15 187.29 629.26 181.96 619.92 177.13 610.02 172.79 599.73 168.54 589.22 164.71 578.47 161.3 567.6 157.83 556.69 154.68 545.77 151.82 534.89 148.77 524.08 145.91 513.35 143.23 502.74 140.25 492.23 137.39 481.83 134.67 471.56 131.62 461.37 128.71 451.28 125.97 441.29 122.98 431.36 120.24 421.5 117.81 411.72 115.3 401.96 113.22 392.27 111.66 382.65 110.22 373.04 109.46 363.72 109.41 354.71 109.64 345.69 110.63 336.99 112.38 328.61 114.47 320.24 117.31 312.2 120.85 304.51 124.68 296.83 129.15 289.5 134.18 282.54 139.37 275.58 145.03 268.97 151.08 262.72 157.13 256.43 163.46 250.46 170.01 244.8 176.41 239.04 182.96 233.52 189.62 228.24 196.04 222.76 202.54 217.42 209.11 212.21 215.41 206.7 221.8 201.23 228.29 195.79 234.54 189.97 240.92 184.14 247.46 178.27 253.82 172.04 260.39 165.8 267.18 159.57 273.85 153.08 280.79 146.69 288 140.49 295.15 134.21 302.6 128.28 310.36 122.8 318.07 117.5 326.11 112.84 334.46 108.93 342.79 105.44 351.43 102.86 360.4 101.26 369.35 100.24 378.62 100.25 388.21 101.33" stroke-dasharray="10 7" transform="rotate(0, 400, 400)" opacity="0.23"></path><path d="M393.33 111.96C402.67 113.55 412.15 116.02 421.74 119.27 431.36 122.8 441.12 126.92 451.01 131.52 460.94 136.11 471.03 140.99 481.24 146.06 491.5 150.88 501.9 155.77 512.38 160.67 522.9 165.18 533.47 169.65 544.02 174.08 554.52 178.08 564.91 182.06 575.09 186.06 585.05 189.69 594.65 193.41 603.72 197.25 612.37 200.85 620.3 204.67 627.37 208.74 633.79 212.69 639.16 216.98 643.39 221.62 647.95 228.76 650 245.16 647.86 254.44 645.84 260.83 643.19 267.63 640.16 274.79 637.52 282.02 635 289.6 632.87 297.48 631.84 305.41 631.63 313.62 632.44 322.06 634.76 330.53 638.24 339.21 642.82 348.05 648.77 356.91 655.51 365.92 662.77 375.06 670.59 384.19 678.04 393.24 684.75 402.19 690.94 411.15 695.75 420.03 698.95 428.82 700.92 437.66 701 446.46 699.21 455.23 696.02 464.1 691.08 472.99 684.58 481.92 677.04 491.01 668.32 500.2 658.71 509.51 648.64 519.03 638.11 528.7 627.37 538.52 616.74 548.55 606.21 558.74 595.94 569.02 586.14 579.45 576.73 589.9 567.76 600.29 559.38 610.64 551.41 620.76 543.81 630.5 536.73 639.93 529.91 648.75 523.27 656.79 516.99 664.19 510.75 670.58 504.46 675.79 498.38 680.11 492.13 683.11 485.65 684.71 479.27 685.37 472.57 684.67 465.53 682.66 458.51 679.97 451.11 676.23 443.33 671.62 435.54 666.91 427.35 661.79 418.78 656.49 410.19 651.82 401.23 647.47 391.92 643.66 382.61 641.07 373.19 639.35 363.72 638.52 354.26 638.98 344.78 640.19 335.32 642.01 325.9 644.77 316.54 647.77 307.29 650.8 298.12 654.17 289.1 657.16 280.28 659.56 271.59 661.73 263.14 662.99 254.99 663.24 247.01 662.89 239.38 661.37 232.14 658.69 225.09 655.28 218.46 650.74 212.3 645.14 206.32 638.89 200.81 631.73 195.78 623.8 190.9 615.39 186.46 606.38 182.47 596.91 178.53 587.17 174.97 577.13 171.77 566.88 168.48 556.54 165.47 546.11 162.71 535.66 159.74 525.23 156.93 514.83 154.28 504.51 151.32 494.24 148.47 484.07 145.73 474.02 142.68 464.02 139.75 454.12 136.99 444.35 133.99 434.61 131.22 424.97 128.76 415.44 126.21 405.93 124.09 396.51 122.47 387.2 120.96 377.89 120.12 368.9 119.97 360.23 120.09 351.56 120.96 343.21 122.56 335.2 124.5 327.18 127.17 319.5 130.54 312.16 134.2 304.8 138.49 297.79 143.35 291.12 148.39 284.42 153.89 278.04 159.8 271.99 165.74 265.87 171.98 260.02 178.45 254.45 184.81 248.73 191.34 243.23 197.99 237.92 204.44 232.38 210.97 226.96 217.57 221.63 223.93 216.01 230.37 210.41 236.89 204.83 243.18 198.9 249.58 192.95 256.11 187 262.45 180.71 268.97 174.44 275.68 168.21 282.25 161.77 289.06 155.46 296.12 149.38 303.08 143.26 310.33 137.5 317.85 132.22 325.33 127.13 333.11 122.67 341.19 118.96 349.24 115.66 357.61 113.23 366.3 111.76 374.97 110.82 383.98 110.89 393.32 111.96" stroke-dasharray="4 6" transform="rotate(4.04, 400, 400)" opacity="0.21"></path><path d="M398.86 122.6C407.94 124.15 417.17 126.56 426.51 129.71 435.88 133.13 445.38 137.14 455 141.62 464.65 146.11 474.43 150.9 484.3 155.91 494.2 160.7 504.19 165.59 514.2 170.5 524.2 175.07 534.19 179.62 544.08 184.13 553.87 188.25 563.47 192.36 572.77 196.46 581.82 200.2 590.43 204.01 598.46 207.91 606.05 211.55 612.91 215.36 618.9 219.38 626.49 225.33 635.46 238.63 636.73 246.12 636.7 251.24 635.74 256.76 633.96 262.64 632.07 268.58 629.7 274.89 627.07 281.55 624.91 288.27 622.92 295.32 621.34 302.69 620.82 310.09 621.08 317.79 622.24 325.73 624.8 333.7 628.36 341.91 632.9 350.32 638.65 358.73 645.09 367.34 651.96 376.13 659.35 384.92 666.38 393.68 672.73 402.39 678.65 411.12 683.33 419.82 686.58 428.5 688.73 437.21 689.18 445.94 687.92 454.69 685.39 463.52 681.22 472.41 675.57 481.37 668.92 490.46 661.09 499.66 652.33 508.97 643.05 518.44 633.21 528.05 623.04 537.77 612.85 547.63 602.62 557.59 592.52 567.58 582.75 577.62 573.25 587.62 564.09 597.46 555.41 607.19 547.08 616.61 539.09 625.59 531.57 634.2 524.3 642.16 517.24 649.33 510.54 655.86 503.93 661.4 497.34 665.81 490.97 669.4 484.52 671.76 477.93 672.84 471.45 673.09 464.75 672.11 457.79 669.96 450.87 667.25 443.65 663.62 436.12 659.22 428.59 654.78 420.72 649.98 412.53 645.04 404.33 640.69 395.8 636.62 386.98 633.03 378.15 630.55 369.24 628.83 360.3 627.9 351.38 628.16 342.45 629.09 333.56 630.58 324.72 632.95 315.96 635.57 307.32 638.25 298.76 641.31 290.37 644.06 282.19 646.34 274.13 648.49 266.33 649.87 258.83 650.36 251.48 650.38 244.48 649.36 237.86 647.29 231.4 644.59 225.35 640.84 219.74 636.1 214.28 630.76 209.25 624.53 204.66 617.53 200.18 610.06 196.09 601.95 192.41 593.34 188.74 584.43 185.4 575.16 182.37 565.61 179.24 555.94 176.33 546.1 173.64 536.18 170.73 526.23 167.95 516.26 165.3 506.32 162.36 496.41 159.5 486.56 156.75 476.8 153.69 467.07 150.74 457.44 147.96 447.93 144.95 438.44 142.16 429.06 139.67 419.8 137.11 410.56 134.94 401.42 133.27 392.41 131.71 383.4 130.8 374.72 130.55 366.37 130.56 358.02 131.3 349.99 132.76 342.29 134.54 334.58 137.04 327.2 140.22 320.14 143.69 313.06 147.79 306.29 152.45 299.84 157.3 293.34 162.64 287.13 168.38 281.21 174.17 275.19 180.29 269.42 186.66 263.87 192.95 258.17 199.43 252.63 206.05 247.25 212.49 241.64 219.04 236.12 225.66 230.67 232.07 224.94 238.55 219.22 245.11 213.51 251.45 207.49 257.89 201.46 264.43 195.43 270.79 189.13 277.3 182.86 283.96 176.67 290.49 170.31 297.22 164.12 304.16 158.18 311.01 152.24 318.1 146.68 325.45 141.6 332.74 136.74 340.32 132.5 348.18 128.99 356 125.88 364.13 123.62 372.58 122.26 381 121.42 389.76 121.52 398.85 122.6" stroke-dasharray="1 2" transform="rotate(8.08, 400, 400)" opacity="0.45"></path><path d="M404.45 133.23C413.28 134.75 422.23 137.08 431.28 140.13 440.36 143.45 449.55 147.33 458.83 151.67 468.13 156.05 477.52 160.75 486.96 165.67 496.4 170.41 505.87 175.28 515.31 180.19 524.71 184.8 534.02 189.41 543.17 194 552.17 198.22 560.92 202.44 569.29 206.64 577.4 210.51 585.01 214.42 592.02 218.39 598.6 222.1 604.45 225.95 609.45 229.96 615.68 235.83 622.53 248.7 623.16 255.83 622.37 263.27 617.44 279.88 614.23 289.07 612.54 295.33 611.08 301.92 610.03 308.83 609.98 315.76 610.65 322.98 612.14 330.48 614.88 337.99 618.51 345.76 622.98 353.76 628.53 361.77 634.67 370 641.16 378.45 648.11 386.9 654.73 395.38 660.74 403.85 666.38 412.34 670.92 420.86 674.16 429.39 676.46 437.96 677.23 446.58 676.43 455.25 674.51 463.99 671.06 472.81 666.21 481.71 660.41 490.72 653.46 499.83 645.56 509.04 637.1 518.37 628.01 527.8 618.49 537.29 608.84 546.86 599.05 556.47 589.25 566.05 579.65 575.61 570.21 585.05 561.01 594.26 552.18 603.3 543.64 611.97 535.38 620.14 527.52 627.92 519.9 635.03 512.5 641.33 505.43 647.02 498.48 651.76 491.61 655.43 484.96 658.35 478.29 660.14 471.55 660.76 464.95 660.66 458.2 659.47 451.27 657.22 444.4 654.53 437.3 651.02 429.96 646.85 422.64 642.69 415.05 638.21 407.2 633.61 399.34 629.57 391.22 625.78 382.84 622.39 374.47 620.02 366.05 618.32 357.63 617.31 349.24 617.38 340.86 618.05 332.55 619.22 324.29 621.23 316.12 623.47 308.1 625.81 300.16 628.54 292.39 631.05 284.85 633.16 277.42 635.24 270.24 636.66 263.38 637.33 256.65 637.62 250.24 637.01 244.22 635.47 238.32 633.39 232.81 630.34 227.71 626.39 222.71 621.89 218.12 616.53 213.92 610.42 209.79 603.86 206.01 596.66 202.59 588.92 199.14 580.87 195.98 572.41 193.1 563.63 190.07 554.68 187.24 545.5 184.6 536.19 181.72 526.82 178.95 517.37 176.3 507.91 173.35 498.44 170.48 488.99 167.7 479.6 164.63 470.23 161.68 460.93 158.88 451.73 155.86 442.56 153.07 433.48 150.56 424.51 147.98 415.57 145.79 406.73 144.08 398.02 142.48 389.31 141.49 380.93 141.15 372.88 141.07 364.82 141.68 357.07 142.98 349.65 144.6 342.21 146.92 335.07 149.9 328.24 153.17 321.38 157.05 314.81 161.5 308.52 166.15 302.17 171.28 296.07 176.82 290.22 182.45 284.27 188.41 278.52 194.64 272.95 200.84 267.23 207.23 261.64 213.78 256.17 220.2 250.48 226.73 244.86 233.35 239.28 239.79 233.45 246.3 227.63 252.88 221.81 259.27 215.73 265.75 209.65 272.32 203.59 278.71 197.3 285.22 191.08 291.87 184.96 298.39 178.72 305.07 172.67 311.94 166.9 318.71 161.17 325.69 155.83 332.91 150.97 340.06 146.34 347.47 142.33 355.14 139.02 362.77 136.11 370.7 134.01 378.91 132.77 387.11 132.02 395.61 132.16 404.44 133.23" stroke-dasharray="5 10" transform="rotate(12.12, 400, 400)" opacity="0.32"></path><path d="M409.77 143.86C418.32 145.35 426.96 147.6 435.69 150.54 444.43 153.74 453.25 157.49 462.13 161.7 471.02 165.95 479.94 170.53 488.87 175.35 497.79 180.03 506.67 184.84 515.46 189.73 524.18 194.36 532.75 199.01 541.09 203.65 549.27 207.97 557.13 212.28 564.58 216.58 571.75 220.56 578.4 224.58 584.43 228.64 592.52 234.39 604.14 246.24 607.47 252.51 609.28 258.85 608.56 272.82 606.51 280.53 605.07 285.75 603.4 291.31 601.65 297.18 600.44 303.06 599.48 309.26 598.93 315.76 599.32 322.28 600.36 329.09 602.12 336.18 605.02 343.27 608.68 350.64 613.06 358.27 618.4 365.89 624.23 373.78 630.35 381.9 636.89 390.03 643.11 398.22 648.77 406.45 654.13 414.69 658.5 423 661.72 431.35 664.13 439.74 665.16 448.2 664.78 456.73 663.39 465.31 660.6 473.99 656.51 482.75 651.52 491.59 645.42 500.51 638.37 509.51 630.75 518.59 622.44 527.72 613.64 536.87 604.63 546.05 595.36 555.21 585.99 564.27 576.7 573.26 567.47 582.06 558.38 590.57 549.55 598.87 540.93 606.76 532.54 614.1 524.47 621.05 516.62 627.32 508.97 632.79 501.61 637.69 494.39 641.68 487.28 644.66 480.38 646.99 473.51 648.28 466.63 648.5 459.89 648.12 453.07 646.75 446.15 644.47 439.29 641.82 432.28 638.46 425.1 634.53 417.94 630.64 410.58 626.48 403.03 622.21 395.48 618.47 387.72 614.94 379.77 611.76 371.82 609.5 363.88 607.81 355.97 606.74 348.07 606.64 340.23 607.07 332.49 607.95 324.79 609.61 317.21 611.5 309.79 613.49 302.44 615.9 295.28 618.13 288.36 620.06 281.53 622.01 274.96 623.42 268.7 624.19 259.62 624.54 243.33 620.51 236.17 616.03 231.6 612.3 227.38 607.75 223.53 602.48 219.69 596.8 216.17 590.47 212.97 583.59 209.69 576.41 206.67 568.78 203.89 560.78 200.94 552.6 198.17 544.16 195.54 535.52 192.67 526.79 189.91 517.93 187.23 509.01 184.27 500.07 181.39 491.09 178.59 482.15 175.51 473.2 172.55 464.3 169.74 455.47 166.72 446.65 163.93 437.91 161.41 429.28 158.83 420.66 156.63 412.13 154.88 403.73 153.25 395.33 152.21 387.24 151.78 379.47 151.59 371.68 152.08 364.19 153.23 357.01 154.69 349.8 156.82 342.87 159.58 336.23 162.64 329.54 166.3 323.12 170.5 316.95 174.93 310.7 179.83 304.67 185.15 298.86 190.58 292.93 196.36 287.17 202.41 281.57 208.47 275.81 214.74 270.15 221.19 264.59 227.54 258.82 234.03 253.1 240.61 247.43 247.04 241.51 253.56 235.61 260.15 229.73 266.57 223.62 273.07 217.52 279.66 211.47 286.08 205.24 292.61 199.09 299.26 193.09 305.77 187 312.43 181.13 319.24 175.56 325.96 170.05 332.87 164.94 339.98 160.33 347.02 155.95 354.29 152.17 361.79 149.07 369.26 146.35 376.98 144.41 384.98 143.28 392.95 142.62 401.21 142.81 409.76 143.86" stroke-dasharray="2 4" transform="rotate(16.16, 400, 400)" opacity="0.43"></path><path d="M414.48 154.5C422.73 155.94 431.04 158.12 439.4 160.94 447.76 164.02 456.17 167.63 464.59 171.68 473 175.8 481.41 180.25 489.76 184.95 498.09 189.54 506.32 194.29 514.41 199.13 522.41 203.75 530.21 208.41 537.72 213.09 545.06 217.47 552.04 221.86 558.58 226.25 564.85 230.34 570.59 234.46 575.71 238.62 582.53 244.5 591.99 256.49 594.51 262.73 595.8 268.97 594.84 282.52 593.07 289.91 591.29 297.53 588.37 314.24 588.04 323.33 588.82 329.48 590.18 335.93 592.19 342.66 595.2 349.38 598.87 356.39 603.14 363.67 608.26 370.94 613.79 378.49 619.55 386.3 625.68 394.11 631.51 402 636.82 409.97 641.9 417.95 646.09 426.02 649.26 434.15 651.74 442.31 652.98 450.56 652.96 458.89 652.05 467.25 649.86 475.71 646.46 484.23 642.24 492.81 636.95 501.45 630.74 510.14 623.95 518.86 616.45 527.6 608.41 536.31 600.09 545 591.44 553.62 582.6 562.07 573.74 570.42 564.84 578.53 556 586.3 547.32 593.83 538.77 600.91 530.38 607.44 522.24 613.57 514.28 619.03 506.49 623.71 498.95 627.87 491.55 631.17 484.27 633.54 477.18 635.33 470.16 636.18 463.17 636.08 456.31 635.47 449.43 633.99 442.51 631.69 435.65 629.12 428.71 625.93 421.66 622.24 414.64 618.63 407.49 614.78 400.21 610.84 392.94 607.38 385.51 604.1 377.96 601.13 370.41 598.97 362.9 597.32 355.48 596.19 348.06 595.94 340.73 596.15 333.54 596.76 326.37 598.09 319.34 599.64 312.5 601.3 305.71 603.38 299.13 605.33 292.8 607.04 283.52 609.51 266.52 611.58 258.87 610.78 251.65 608.7 238.95 600.13 233.43 593.72 229.84 588.85 226.54 583.36 223.5 577.31 220.36 570.97 217.44 564.17 214.72 556.97 211.83 549.59 209.07 541.89 206.45 533.96 203.58 525.93 200.8 517.72 198.1 509.4 195.13 501.03 192.22 492.6 189.4 484.15 186.32 475.69 183.36 467.24 180.54 458.83 177.54 450.42 174.75 442.06 172.23 433.79 169.67 425.52 167.46 417.33 165.69 409.25 164.03 401.17 162.93 393.37 162.43 385.86 162.15 378.33 162.51 371.09 163.51 364.12 164.81 357.12 166.74 350.37 169.29 343.88 172.12 337.34 175.54 331.03 179.49 324.94 183.67 318.77 188.32 312.79 193.39 306.98 198.59 301.06 204.15 295.29 209.99 289.63 215.87 283.83 221.99 278.11 228.29 272.46 234.54 266.63 240.93 260.84 247.43 255.08 253.83 249.12 260.32 243.18 266.88 237.27 273.3 231.16 279.81 225.09 286.39 219.1 292.83 212.96 299.36 206.93 305.99 201.07 312.51 195.17 319.14 189.51 325.91 184.16 332.59 178.9 339.43 174.04 346.43 169.68 353.38 165.55 360.52 162.01 367.86 159.12 375.17 156.6 382.7 154.81 390.47 153.81 398.22 153.23 406.22 153.45 414.47 154.5" stroke-dasharray="10 3" transform="rotate(20.200000000000003, 400, 400)" opacity="0.94"></path><path d="M418.29 165.13C426.21 166.53 434.16 168.63 442.11 171.33 450.07 174.28 458.01 177.74 465.93 181.64 473.83 185.61 481.67 189.91 489.41 194.47 497.11 198.96 504.67 203.62 512.03 208.39 519.29 212.97 526.3 217.62 532.99 222.3 539.52 226.73 545.65 231.18 551.33 235.63 556.76 239.82 561.67 244.03 565.99 248.26 571.69 254.29 579.36 266.46 581.28 272.72 582.22 278.93 581.31 292.21 579.9 299.37 578.65 306.7 577.05 322.67 577.36 331.32 578.49 337.17 580.13 343.3 582.33 349.71 585.42 356.11 589.06 362.79 593.22 369.74 598.11 376.69 603.34 383.91 608.74 391.41 614.48 398.9 619.92 406.5 624.9 414.19 629.69 421.88 633.69 429.67 636.79 437.54 639.3 445.43 640.71 453.41 640.99 461.46 640.5 469.54 638.84 477.7 636.07 485.9 632.56 494.13 628.05 502.41 622.64 510.69 616.68 518.97 609.99 527.23 602.74 535.41 595.16 543.54 587.19 551.54 578.95 559.33 570.63 566.99 562.19 574.36 553.71 581.37 545.31 588.12 536.97 594.4 528.72 600.12 520.65 605.47 512.71 610.15 504.91 614.1 497.3 617.58 489.82 620.26 482.46 622.09 475.26 623.42 468.14 623.9 461.1 623.52 454.17 622.74 447.25 621.19 440.35 618.92 433.51 616.45 426.64 613.45 419.72 610 412.83 606.66 405.87 603.12 398.84 599.49 391.82 596.31 384.71 593.28 377.52 590.49 370.33 588.44 363.24 586.82 356.26 585.65 349.29 585.27 342.45 585.29 335.76 585.66 329.09 586.68 322.58 587.91 316.28 589.25 310.01 591 303.96 592.66 298.16 594.13 289.66 596.36 274.11 598.5 267.11 598.04 260.48 596.52 248.74 589.58 243.58 584.19 240.19 580.07 237.04 575.34 234.12 570.07 231.08 564.54 228.23 558.54 225.55 552.13 222.68 545.54 219.93 538.6 217.29 531.4 214.41 524.08 211.61 516.55 208.88 508.88 205.89 501.14 202.97 493.29 200.13 485.38 197.05 477.45 194.09 469.49 191.27 461.54 188.3 453.58 185.53 445.64 183.02 437.76 180.48 429.87 178.28 422.04 176.5 414.28 174.82 406.53 173.68 399.02 173.1 391.77 172.74 384.51 172.98 377.49 173.83 370.72 174.96 363.91 176.7 357.33 179.02 350.97 181.62 344.56 184.79 338.34 188.47 332.31 192.38 326.21 196.76 320.26 201.56 314.45 206.5 308.54 211.8 302.74 217.41 297.05 223.07 291.21 228.98 285.44 235.1 279.73 241.19 273.86 247.45 268.02 253.83 262.23 260.14 256.26 266.55 250.31 273.04 244.42 279.43 238.36 285.9 232.37 292.44 226.47 298.87 220.47 305.39 214.61 311.98 208.93 318.48 203.24 325.08 197.82 331.78 192.71 338.41 187.72 345.17 183.13 352.07 179.03 358.92 175.16 365.93 171.86 373.11 169.19 380.25 166.87 387.59 165.23 395.12 164.34 402.63 163.84 410.35 164.1 418.28 165.13" stroke-dasharray="6 3" transform="rotate(24.24, 400, 400)" opacity="0.52"></path><path d="M420.96 175.77C428.54 177.12 436.09 179.13 443.6 181.71 451.11 184.53 458.57 187.83 465.95 191.56 473.3 195.38 480.56 199.52 487.66 203.92 494.72 208.28 501.58 212.83 508.22 217.5 514.75 222.03 521 226.64 526.9 231.29 532.65 235.74 538 240.21 542.89 244.71 549.65 251.11 560.13 263.72 563.72 270 566.38 276.08 568.65 288.61 568.49 295.16 568.01 301.74 566.33 315.85 565.68 323.45 565.99 331.23 569.25 348.05 572.54 357.1 575.67 363.21 579.28 369.59 583.3 376.23 587.96 382.87 592.88 389.78 597.93 396.96 603.28 404.15 608.36 411.44 613 418.81 617.5 426.2 621.31 433.68 624.3 441.24 626.82 448.81 628.35 456.47 628.88 464.18 628.75 471.9 627.56 479.68 625.37 487.49 622.51 495.3 618.72 503.13 614.08 510.92 608.91 518.69 603.03 526.39 596.56 533.98 589.75 541.48 582.51 548.82 574.94 555.91 567.23 562.85 559.33 569.47 551.33 575.71 543.33 581.68 535.32 587.18 527.34 592.14 519.47 596.73 511.68 600.7 503.98 603.98 496.43 606.84 488.98 608.97 481.64 610.32 474.44 611.26 467.31 611.43 460.27 610.85 453.33 609.94 446.44 608.36 439.59 606.16 432.8 603.81 426.02 601 419.24 597.81 412.49 594.74 405.71 591.49 398.92 588.16 392.14 585.25 385.32 582.45 378.48 579.86 371.63 577.92 364.92 576.34 358.36 575.14 351.81 574.64 345.4 574.48 339.18 574.63 332.96 575.37 326.94 576.3 321.12 577.33 312.54 579.44 296.61 583.3 289.31 584.58 282.32 585.35 269.75 584.02 264.15 581.73 258.78 578.44 249.14 568.46 244.79 561.9 241.82 557.12 239 551.88 236.33 546.23 233.46 540.39 230.7 534.21 228.04 527.73 225.14 521.13 222.31 514.3 219.55 507.28 216.55 500.19 213.61 492.95 210.76 485.62 207.7 478.26 204.75 470.82 201.95 463.36 199.01 455.88 196.27 448.39 193.79 440.92 191.27 433.44 189.09 425.99 187.3 418.57 185.62 411.16 184.44 403.95 183.8 396.97 183.36 389.97 183.49 383.18 184.19 376.59 185.15 369.98 186.7 363.56 188.8 357.32 191.17 351.03 194.07 344.91 197.47 338.93 201.1 332.89 205.19 326.98 209.69 321.18 214.35 315.28 219.37 309.48 224.69 303.76 230.1 297.91 235.77 292.12 241.65 286.39 247.55 280.51 253.62 274.67 259.83 268.88 266 262.94 272.28 257.04 278.66 251.21 284.96 245.26 291.35 239.38 297.81 233.63 304.19 227.8 310.64 222.14 317.17 216.68 323.61 211.24 330.14 206.07 336.76 201.24 343.32 196.53 349.98 192.22 356.76 188.39 363.49 184.79 370.35 181.73 377.34 179.28 384.31 177.14 391.43 175.67 398.7 174.88 405.95 174.46 413.37 174.75 420.95 175.77" stroke-dasharray="4 7" transform="rotate(28.28, 400, 400)" opacity="0.24"></path><path d="M422.33 186.4C429.53 187.71 436.66 189.62 443.71 192.08 450.76 194.76 457.71 197.9 464.53 201.46 471.33 205.1 477.99 209.07 484.45 213.31 490.87 217.52 497.06 221.93 502.99 226.48 508.83 230.92 514.36 235.46 519.53 240.06 524.57 244.49 529.2 248.96 533.4 253.47 539.19 259.93 548.01 272.72 550.98 279.09 553.21 285.27 555.19 297.89 555.18 304.42 555.01 310.95 554.35 324.8 554.32 332.18 555.19 339.71 559.31 355.89 562.82 364.56 565.97 370.41 569.5 376.51 573.37 382.87 577.79 389.21 582.41 395.82 587.13 402.68 592.1 409.54 596.81 416.51 601.13 423.55 605.35 430.6 608.94 437.74 611.82 444.94 614.3 452.15 615.92 459.43 616.65 466.74 616.82 474.06 616.05 481.4 614.36 488.74 612.1 496.07 608.96 503.38 605.04 510.62 600.62 517.82 595.52 524.92 589.83 531.86 583.8 538.71 577.31 545.35 570.45 551.72 563.42 557.93 556.14 563.8 548.69 569.28 541.2 574.5 533.63 579.26 526.03 583.49 518.48 587.39 510.96 590.71 503.49 593.38 496.12 595.7 488.82 597.34 481.61 598.29 474.49 598.9 467.45 598.83 460.5 598.09 453.63 597.1 446.82 595.53 440.07 593.42 433.38 591.22 426.72 588.61 420.1 585.67 413.51 582.87 406.93 579.91 400.37 576.87 393.83 574.21 387.29 571.64 380.77 569.22 374.25 567.39 367.89 565.86 361.72 564.64 352.54 563.89 335.13 564.49 326.95 565.55 319 567.22 304.28 570.37 297.54 571.46 285.21 571.74 268.99 566.8 264.32 563.06 259.7 558.46 251.09 546.49 247.01 539.27 244.14 534.15 241.35 528.69 238.66 522.91 235.74 517.02 232.88 510.87 230.1 504.5 227.09 498.07 224.15 491.46 221.3 484.71 218.26 477.93 215.34 471.04 212.56 464.09 209.66 457.12 206.97 450.1 204.52 443.05 202.04 436.01 199.89 428.94 198.11 421.89 196.42 414.83 195.22 407.94 194.52 401.22 194.01 394.5 194.03 387.94 194.59 381.55 195.4 375.13 196.75 368.87 198.62 362.76 200.75 356.6 203.39 350.58 206.5 344.67 209.84 338.71 213.62 332.84 217.81 327.07 222.15 321.22 226.86 315.43 231.88 309.72 236.99 303.9 242.38 298.13 247.99 292.41 253.64 286.57 259.47 280.78 265.46 275.04 271.44 269.19 277.54 263.39 283.75 257.67 289.91 251.86 296.16 246.16 302.49 240.59 308.76 234.98 315.1 229.55 321.51 224.35 327.86 219.18 334.29 214.3 340.78 209.75 347.23 205.34 353.76 201.32 360.38 197.76 366.96 194.43 373.65 191.62 380.43 189.38 387.19 187.44 394.07 186.11 401.05 185.43 408.03 185.09 415.12 185.41 422.32 186.4" stroke-dasharray="2 5" transform="rotate(32.32, 400, 400)" opacity="0.96"></path><path d="M422.31 197.03C429.11 198.29 435.8 200.11 442.38 202.44 448.94 204.98 455.37 207.96 461.64 211.32 467.89 214.79 473.95 218.58 479.8 222.62 485.6 226.67 491.15 230.92 496.42 235.33 501.61 239.65 506.48 244.09 510.99 248.61 517.41 255.21 527.99 268.39 532.08 274.95 535.5 281.28 539.99 293.97 541.14 300.38 541.94 306.68 542.37 319.7 542.34 326.5 542.73 333.35 544.64 347.88 546.5 355.61 548.39 360.8 550.61 366.21 553.16 371.84 556.29 377.45 559.73 383.29 563.44 389.36 567.61 395.42 571.94 401.72 576.32 408.26 580.93 414.79 585.29 421.41 589.29 428.1 593.21 434.79 596.59 441.55 599.34 448.36 601.76 455.16 603.43 462.01 604.31 468.87 604.73 475.73 604.31 482.59 603.07 489.41 601.33 496.21 598.8 502.96 595.53 509.6 591.82 516.19 587.46 522.65 582.53 528.92 577.26 535.09 571.52 541.02 565.4 546.67 559.08 552.16 552.46 557.3 545.64 562.05 538.73 566.57 531.69 570.63 524.57 574.19 517.45 577.46 510.31 580.19 503.18 582.33 496.1 584.17 489.05 585.4 482.07 586.02 475.15 586.35 468.3 586.1 461.52 585.27 454.8 584.24 448.14 582.71 441.56 580.71 435.02 578.66 428.53 576.27 422.1 573.58 415.7 571.04 409.34 568.36 403.03 565.6 396.73 563.18 390.47 560.83 384.26 558.59 378.05 556.87 372.02 555.38 366.2 554.16 357.55 553.26 341.26 553.25 333.64 553.92 326.23 555.16 312.55 557.59 306.28 558.44 294.7 558.74 279.28 554.75 274.74 551.63 270.22 547.78 261.66 537.55 257.55 531.29 254.67 526.84 251.86 522.04 249.13 516.93 246.19 511.71 243.32 506.22 240.52 500.5 237.51 494.7 234.58 488.71 231.74 482.55 228.74 476.36 225.85 470.02 223.11 463.59 220.27 457.14 217.62 450.6 215.22 444 212.8 437.4 210.68 430.74 208.92 424.06 207.24 417.37 206.02 410.8 205.27 404.37 204.69 397.94 204.62 391.63 205.05 385.44 205.69 379.24 206.85 373.16 208.51 367.19 210.39 361.18 212.76 355.27 215.59 349.46 218.62 343.6 222.09 337.81 225.94 332.1 229.96 326.32 234.33 320.6 239.01 314.93 243.8 309.18 248.86 303.48 254.16 297.82 259.52 292.08 265.07 286.38 270.78 280.75 276.51 275.03 282.38 269.38 288.36 263.83 294.33 258.22 300.39 252.73 306.52 247.38 312.63 242.04 318.81 236.88 325.04 231.95 331.24 227.09 337.51 222.51 343.84 218.26 350.13 214.16 356.48 210.44 362.9 207.16 369.3 204.11 375.77 201.54 382.3 199.51 388.83 197.75 395.43 196.57 402.1 196 408.76 195.72 415.5 196.07 422.3 197.03" stroke-dasharray="8 3" transform="rotate(36.36, 400, 400)" opacity="0.58"></path><path d="M420.9 207.67C427.28 208.87 433.52 210.59 439.61 212.79 445.69 215.18 451.61 217.99 457.34 221.17 468.72 227.8 479.24 235.55 488.65 244.05 497.78 252.33 505.61 261.06 511.95 270.03 517.87 278.44 522.25 287.06 525.05 295.82 527.69 304.03 529.09 312.55 529.53 321.39 530.6 329.85 531.46 338.84 532.53 348.4 535.26 357.76 538.89 367.85 543.55 378.67 546.64 384.05 549.97 389.64 553.5 395.43 557.42 401.21 561.46 407.2 565.51 413.4 569.77 419.6 573.79 425.86 577.47 432.17 581.11 438.47 584.26 444.83 586.87 451.2 591.23 463.94 592.81 476.72 591.51 489.29 588.51 501.73 582.73 513.76 574.63 525.06 565.28 535.92 554.22 545.71 542.04 554.04 529.41 561.55 516.19 567.25 502.79 570.87 489.44 573.5 476.12 574 463.04 572.4 450.12 570.25 437.41 566.51 425 561.56 418.82 559.27 412.71 556.85 406.66 554.35 400.62 552.17 394.64 550.02 388.73 547.96 379.96 545.63 363.44 542.67 355.69 542.01 345.47 542.51 336.07 543.3 327.56 544.03 318.97 545.57 311.21 546.31 304.31 545.94 297.2 545.47 290.8 543.43 285.07 539.76 278.91 535.59 273.2 529.74 267.91 522.39 261.94 514.57 256.22 505.44 250.78 495.26 244.65 484.84 238.85 473.6 233.59 461.78 230.82 455.85 228.23 449.8 225.89 443.66 223.53 437.51 221.46 431.27 219.72 424.97 218.07 418.67 216.84 412.44 216.05 406.32 215.41 400.18 215.25 394.14 215.55 388.18 216.75 376.24 219.87 364.58 224.74 353.26 230.39 341.77 237.62 330.47 246.13 319.41 255.12 308.09 265.12 296.93 275.87 286.04 286.76 274.95 298.19 264.21 309.98 254.05 321.71 243.99 333.75 234.79 345.96 226.79 358.1 219.38 370.46 213.56 382.97 209.66 389.22 208.09 395.51 207.05 401.83 206.57 408.15 206.37 414.51 206.73 420.89 207.67" stroke-dasharray="3 10" transform="rotate(40.400000000000006, 400, 400)" opacity="0.61"></path><path d="M418.2 218.3C430.08 220.81 441.31 225.15 451.75 230.99 462.1 237.23 471.54 244.57 479.88 252.67 487.99 260.63 494.88 269.09 500.41 277.84 505.67 286.15 509.59 294.69 512.2 303.39 514.8 311.62 516.43 320.12 517.33 328.9 518.92 337.33 520.4 346.2 522.11 355.53 525.31 364.69 529.24 374.44 533.99 384.82 540.41 395.13 547.47 406.15 554.71 417.84 562.64 429.54 569.37 441.39 574.41 453.22 578.64 465.04 580.43 476.78 579.71 488.2 577.56 499.47 572.92 510.24 566.12 520.2 558.18 529.75 548.58 538.21 537.78 545.25 526.46 551.59 514.43 556.26 502.07 559.06 489.65 561.05 477.13 561.2 464.74 559.52 452.45 557.46 440.31 554.05 428.46 549.58 416.68 545.68 405.12 541.48 393.9 537.32 382.67 534.72 372.25 532.7 362.66 531.29 353.02 531.38 344.18 531.69 336.15 531.97 328.02 533.04 320.65 533.45 314.02 532.96 307.16 532.52 300.91 530.75 295.23 527.58 289.12 524.06 283.4 519.05 278.04 512.67 272.07 505.91 266.34 497.91 260.89 488.85 254.85 479.59 249.15 469.45 244 458.66 238.57 447.8 233.97 436.39 230.53 424.58 227.38 412.76 225.9 401.12 226.1 389.74 227 378.31 229.68 367.07 233.99 356.08 239.01 344.95 245.53 333.97 253.29 323.2 261.53 312.25 270.79 301.46 280.8 290.98 291.01 280.4 301.8 270.2 312.95 260.63 324.13 251.23 335.62 242.7 347.25 235.35 358.87 228.58 370.66 223.31 382.51 219.84 394.36 217.29 406.3 216.73 418.18 218.3" stroke-dasharray="9 4" transform="rotate(44.44, 400, 400)" opacity="0.39"></path><path d="M414.36 228.94C425.35 231.3 435.64 235.35 445.1 240.8 454.48 246.63 462.95 253.52 470.36 261.18 477.62 268.77 483.74 276.9 488.66 285.35 493.43 293.47 497.07 301.85 499.63 310.41 502.31 318.59 504.24 327.01 505.62 335.65 507.7 344.01 509.74 352.73 512 361.82 515.56 370.75 519.71 380.17 524.48 390.08 530.63 399.94 537.24 410.38 543.9 421.35 551.15 432.32 557.31 443.33 561.97 454.22 566.02 465.08 567.95 475.75 567.7 486.01 566.27 496.12 562.62 505.64 557.02 514.32 550.4 522.63 542.18 529.86 532.76 535.75 522.8 541.04 512.03 544.83 500.81 546.94 489.45 548.44 477.87 548.32 466.31 546.64 454.79 544.74 443.36 541.66 432.16 537.67 421 534.23 410.06 530.47 399.44 526.69 388.82 524.24 378.98 522.21 369.93 520.64 360.82 520.37 352.45 520.26 344.83 520.12 337.08 520.73 330 520.81 323.58 520.14 316.91 519.63 310.76 518.01 305.11 515.19 299.04 512.17 293.31 507.85 287.91 502.28 281.96 496.43 276.25 489.42 270.83 481.38 264.91 473.18 259.35 464.08 254.35 454.26 249.12 444.39 244.68 433.89 241.33 422.9 238.25 411.9 236.71 400.94 236.72 390.12 237.34 379.28 239.59 368.54 243.34 357.96 247.75 347.29 253.55 336.73 260.54 326.37 268 315.89 276.46 305.6 285.66 295.63 295.11 285.65 305.15 276.08 315.58 267.17 326.08 258.48 336.9 250.65 347.86 243.96 358.84 237.84 369.96 233.11 381.08 230.05 392.22 227.82 403.36 227.41 414.36 228.94" stroke-dasharray="10 10" transform="rotate(48.48, 400, 400)" opacity="0.34"></path><path d="M409.62 239.57C419.72 241.79 429.1 245.55 437.65 250.59 446.14 256 453.76 262.43 460.39 269.6 466.92 276.77 472.44 284.5 476.93 292.58 481.36 300.43 484.86 308.57 487.48 316.89 490.31 324.92 492.57 333.18 494.42 341.64 496.95 349.85 499.48 358.36 502.19 367.16 506.01 375.82 510.28 384.88 515 394.3 520.86 403.69 527 413.52 533.1 423.74 539.69 433.96 545.28 444.11 549.56 454.03 553.38 463.93 555.38 473.53 555.49 482.64 554.66 491.61 551.88 499.95 547.33 507.43 541.92 514.58 535.01 520.69 526.91 525.57 518.3 529.96 508.82 533 498.8 534.56 488.59 535.68 478.06 535.41 467.45 533.79 456.82 532.07 446.19 529.35 435.72 525.82 425.29 522.81 415.01 519.48 405.03 516.05 395.03 513.76 385.75 511.75 377.2 510.06 368.58 509.49 360.64 509.01 353.36 508.48 345.95 508.66 339.11 508.4 332.85 507.53 326.34 506.88 320.28 505.31 314.64 502.73 308.62 500.07 302.9 496.27 297.48 491.37 291.59 486.28 285.94 480.12 280.6 473 274.84 465.74 269.46 457.6 264.62 448.72 259.62 439.79 255.38 430.19 252.14 420.02 249.15 409.85 247.57 399.62 247.39 389.43 247.75 379.24 249.6 369.06 252.82 359 256.62 348.9 261.72 338.86 267.93 329.02 274.59 319.12 282.2 309.42 290.55 300.07 299.17 290.77 308.38 281.91 317.99 273.71 327.72 265.76 337.77 258.65 347.96 252.64 358.19 247.15 368.55 242.96 378.87 240.3 389.22 238.37 399.53 238.09 409.62 239.57" stroke-dasharray="6 2" transform="rotate(52.52, 400, 400)" opacity="0.33"></path><path d="M404.29 250.2C413.5 252.27 422 255.73 429.73 260.36 437.42 265.35 444.28 271.28 450.28 277.94 456.21 284.65 461.28 291.91 465.47 299.55 469.68 307.05 473.13 314.85 475.9 322.85 478.91 330.63 481.49 338.64 483.78 346.82 486.68 354.81 489.6 363.04 492.65 371.49 496.64 379.83 500.96 388.47 505.55 397.37 511.08 406.24 516.75 415.44 522.29 424.89 528.25 434.34 533.29 443.61 537.18 452.57 540.74 461.5 542.74 470.06 543.12 478.08 542.77 485.96 540.72 493.18 537.1 499.56 532.77 505.67 527.05 510.8 520.21 514.8 512.89 518.43 504.69 520.86 495.89 522.01 486.88 522.84 477.47 522.49 467.86 521 458.22 519.48 448.48 517.11 438.83 514.04 429.18 511.43 419.63 508.5 410.29 505.42 400.96 503.29 392.24 501.32 384.16 499.55 376.03 498.73 368.47 497.94 361.5 497.08 354.4 496.86 347.79 496.27 341.66 495.18 335.31 494.35 329.34 492.76 323.73 490.33 317.79 487.89 312.11 484.49 306.73 480.13 300.94 475.66 295.4 470.23 290.19 463.9 284.63 457.47 279.46 450.21 274.83 442.21 270.08 434.16 266.05 425.43 262.95 416.1 260.06 406.76 258.46 397.29 258.13 387.8 258.26 378.31 259.73 368.79 262.44 359.34 265.66 349.88 270.07 340.48 275.51 331.26 281.36 322.05 288.11 313.04 295.57 304.39 303.31 295.83 311.63 287.73 320.36 280.29 329.23 273.11 338.42 266.74 347.75 261.4 357.16 256.53 366.68 252.87 376.15 250.58 385.65 248.94 395.09 248.78 404.29 250.2" stroke-dasharray="5 10" transform="rotate(56.56, 400, 400)" opacity="0.21"></path><path d="M398.7 260.84C407.02 262.75 414.7 265.91 421.68 270.13 428.63 274.67 434.85 280.1 440.32 286.21 445.77 292.41 450.49 299.16 454.49 306.3 458.56 313.35 462.03 320.73 464.96 328.32 468.16 335.76 471.04 343.42 473.69 351.23 476.89 358.9 480.1 366.77 483.39 374.8 487.44 382.75 491.71 390.91 496.13 399.24 501.29 407.55 506.48 416.07 511.48 424.74 516.83 433.4 521.34 441.79 524.84 449.81 528.11 457.79 530.06 465.34 530.62 472.32 530.63 479.19 529.18 485.4 526.36 490.8 522.97 495.98 518.32 500.26 512.63 503.53 506.52 506.52 499.56 508.47 491.96 509.32 484.15 509.96 475.87 509.6 467.33 508.27 458.72 506.99 449.94 504.96 441.15 502.31 432.35 500.09 423.57 497.54 414.92 494.79 406.27 492.82 398.13 490.91 390.53 489.1 382.89 488.08 375.72 487.04 369.04 485.9 362.25 485.33 355.87 484.44 349.89 483.14 343.72 482.1 337.86 480.44 332.32 478.09 326.5 475.79 320.93 472.68 315.63 468.75 310.01 464.77 304.63 459.93 299.59 454.3 294.29 448.6 289.37 442.12 284.98 434.93 280.5 427.72 276.7 419.83 273.75 411.33 271 402.84 269.4 394.16 268.94 385.42 268.86 376.69 269.99 367.89 272.22 359.15 274.89 350.42 278.64 341.74 283.32 333.24 288.37 324.78 294.26 316.54 300.83 308.67 307.66 300.92 315.05 293.62 322.85 286.96 330.8 280.57 339.06 274.93 347.5 270.25 356 266 364.62 262.83 373.21 260.91 381.82 259.53 390.37 259.48 398.7 260.84" stroke-dasharray="10 2" transform="rotate(60.599999999999994, 400, 400)" opacity="0.63"></path><path d="M393.18 271.47C400.65 273.22 407.56 276.08 413.85 279.89 420.13 283.98 425.8 288.89 430.83 294.44 435.87 300.09 440.32 306.28 444.2 312.85 448.17 319.4 451.68 326.27 454.77 333.35 458.12 340.35 461.23 347.57 464.16 354.91 467.56 362.16 470.95 369.58 474.37 377.11 478.4 384.58 482.55 392.21 486.73 399.92 491.5 407.62 496.21 415.44 500.68 423.3 505.43 431.16 509.43 438.68 512.55 445.78 515.51 452.85 517.35 459.46 518.02 465.48 517.8 474.07 510.71 487.41 504.21 491.86 499.21 494.35 493.39 495.93 486.94 496.57 480.29 497.1 473.14 496.78 465.67 495.64 458.11 494.59 450.32 492.9 442.43 490.66 434.53 488.79 426.56 486.59 418.62 484.15 410.69 482.36 403.16 480.53 396.05 478.72 388.91 477.56 382.15 476.32 375.79 474.97 369.33 474.1 363.2 472.95 357.41 471.45 351.46 470.22 345.77 468.47 340.36 466.15 334.72 463.92 329.31 461.02 324.16 457.42 318.77 453.82 313.63 449.48 308.81 444.45 303.81 439.37 299.18 433.6 295.06 427.17 290.88 420.72 287.33 413.64 284.56 405.97 281.95 398.31 280.37 390.45 279.81 382.51 279.56 374.57 280.38 366.57 282.18 358.61 284.33 350.67 287.45 342.8 291.41 335.1 295.69 327.47 300.74 320.06 306.41 313.01 312.32 306.1 318.78 299.64 325.62 293.78 332.62 288.16 339.93 283.26 347.42 279.22 354.98 275.56 362.67 272.86 370.35 271.27 378.05 270.15 385.71 270.19 393.18 271.47" stroke-dasharray="7 5" transform="rotate(64.64, 400, 400)" opacity="0.13"></path><path d="M388.09 282.11C394.73 283.69 400.9 286.25 406.57 289.64 412.23 293.29 417.4 297.66 422.06 302.63 426.74 307.71 430.97 313.3 434.74 319.25 438.62 325.22 442.15 331.51 445.36 338.02 448.81 344.48 452.07 351.15 455.18 357.94 458.67 364.68 462.14 371.56 465.58 378.5 469.5 385.42 473.44 392.43 477.35 399.47 481.69 406.5 485.92 413.59 489.88 420.63 494.05 427.68 497.55 434.35 500.29 440.57 503.78 449.64 505.47 465 503.56 471.05 500.17 476.23 488.57 482.64 480.8 483.82 475.25 484.29 469.18 484.05 462.75 483.12 456.24 482.3 449.44 480.93 442.47 479.07 435.48 477.52 428.35 475.66 421.17 473.52 413.99 471.9 407.09 470.18 400.51 468.4 393.92 467.15 387.6 465.77 381.6 464.27 375.52 463.16 369.7 461.8 364.15 460.14 355.75 457.81 339.85 451.02 332.34 446.32 327.24 443.02 322.38 439.1 317.85 434.58 313.19 430.05 308.89 424.91 305.07 419.18 301.22 413.45 297.94 407.14 295.37 400.3 292.92 393.47 291.39 386.44 290.76 379.33 290.37 372.23 290.91 365.06 292.31 357.94 294 350.86 296.53 343.84 299.82 337 303.36 330.23 307.6 323.69 312.42 317.51 317.43 311.46 322.95 305.84 328.85 300.77 334.88 295.93 341.23 291.73 347.77 288.31 354.37 285.21 361.12 282.97 367.88 281.69 374.67 280.79 381.45 280.9 388.09 282.11" stroke-dasharray="1 10" transform="rotate(68.68, 400, 400)" opacity="0.81"></path><path d="M383.73 292.74C395.41 295.86 405.65 302.2 414.24 310.81 422.98 319.87 430.46 330.68 436.78 342.38 443.91 354.05 450.64 366.49 456.99 379.09 464.77 391.62 472.39 404.43 479.07 416.89 486.42 429.34 491.06 440.21 492.63 449.04 493.44 457.68 490.75 464.05 485.02 467.78 478.47 471.26 469.35 472.23 458.54 470.73 447.48 469.67 435.19 466.95 422.39 462.88 409.59 460.42 397.47 457.33 386.36 453.81 375.04 451.57 364.38 448.21 354.66 443.51 344.47 439.26 334.97 433.08 326.71 424.97 318.11 416.86 310.97 406.67 306.17 394.62 301.81 382.56 300.74 369.88 302.64 357.36 305.42 344.99 311.08 332.99 318.91 322.25 327.39 312.01 337.62 303.47 348.76 297.55 360.13 292.67 372.05 290.85 383.73 292.74" stroke-dasharray="10 7" transform="rotate(72.72, 400, 400)" opacity="0.28"></path><path d="M380.39 303.37C390.52 306.09 399.63 311.56 407.53 318.99 415.58 326.83 422.74 336.26 429.01 346.53 435.93 356.85 442.49 367.89 448.59 379.02 455.71 390.16 462.5 401.43 468.27 412.26 474.54 423.08 478.49 432.38 479.9 439.82 479.87 449.81 465.68 459.09 453.05 458.49 443.88 457.81 433.42 455.68 422.23 452.25 411.03 450.03 400.18 447.06 390.02 443.57 379.74 441.08 369.93 437.58 360.92 432.99 351.6 428.82 342.92 423.09 335.4 415.82 327.69 408.6 321.3 399.67 316.98 389.21 313 378.75 311.82 367.82 313.17 357.1 315.17 346.51 319.62 336.34 325.97 327.34 332.82 318.77 341.25 311.72 350.59 306.94 360.11 302.98 370.26 301.61 380.39 303.37" stroke-dasharray="1 7" transform="rotate(76.76, 400, 400)" opacity="0.09"></path><path d="M378.27 314.01C386.91 316.33 394.9 320.93 402.06 327.18 409.33 333.8 416.02 341.8 422.04 350.56 428.53 359.42 434.69 368.91 440.34 378.5 446.68 388.1 452.58 397.78 457.46 406.99 462.7 416.2 465.98 424.02 467.18 430.22 467.44 438.59 456.55 446.62 446.38 446.4 438.94 446.06 430.24 444.45 420.68 441.62 411.11 439.66 401.63 436.9 392.6 433.57 383.5 430.97 374.72 427.47 366.61 423.1 358.31 419.06 350.6 413.81 343.94 407.37 337.18 400.99 331.6 393.27 327.78 384.37 324.23 375.47 323.02 366.27 323.91 357.34 325.24 348.53 328.63 340.15 333.64 332.84 339 325.87 345.76 320.23 353.4 316.5 361.18 313.38 369.63 312.41 378.27 314.01" stroke-dasharray="4 3" transform="rotate(80.80000000000001, 400, 400)" opacity="0.99"></path><path d="M377.5 324.64C384.68 326.56 391.53 330.32 397.84 335.42 404.24 340.8 410.28 347.36 415.81 354.57 421.65 361.89 427.2 369.76 432.22 377.72 437.68 385.71 442.65 393.74 446.65 401.35 453.54 419.79 446.65 434.35 438.66 434.49 432.79 434.41 425.76 433.25 417.84 430.98 409.92 429.32 401.91 426.84 394.16 423.79 386.39 421.24 378.81 417.9 371.77 413.86 364.65 410.08 358.03 405.35 352.32 399.77 346.59 394.24 341.86 387.71 338.59 380.34 335.51 372.97 334.33 365.48 334.85 358.3 335.66 351.2 338.13 344.56 341.95 338.84 345.99 333.37 351.24 329.02 357.31 326.23 363.47 323.87 370.31 323.23 377.5 324.64" stroke-dasharray="3 6" transform="rotate(84.84, 400, 400)" opacity="0.59"></path><path d="M378.12 335.28C389.64 338.63 400.83 347.45 410.25 358.66 420.42 370.23 429.75 383.57 435.85 395.65 443.17 411.89 431.05 424.05 413.9 420.35 401.34 418.02 388.03 412.6 376.47 405.31 364.82 398.71 354.83 389.08 349.4 377.35 344.46 365.61 345.46 354.05 350.91 345.38 356.86 337.38 366.6 333.24 378.12 335.28" stroke-dasharray="5 9" transform="rotate(88.88, 400, 400)" opacity="0.77"></path><path d="M380.11 345.91C388.79 348.36 397.64 354.75 405.26 362.93 413.27 371.37 420.49 381.19 425.04 390.17 430.34 402.32 421.7 412.16 409.09 409.71 399.78 407.85 389.66 403.38 380.8 397.45 371.96 391.92 364.37 384.31 360.2 375.53 356.32 366.75 356.76 358.49 360.5 352.53 364.48 346.95 371.43 344.22 380.11 345.91" stroke-dasharray="7 10" transform="rotate(92.92, 400, 400)" opacity="0.90"></path><path d="M383.33 356.54C395 360.02 408.42 373.31 414.23 385.2 420.63 397.08 415.97 402.79 403.72 399.08 391.45 396.83 376.76 386.69 371.01 375 365.78 363.3 371.66 354.43 383.33 356.54" stroke-dasharray="2 3" transform="rotate(96.96, 400, 400)" opacity="0.18"></path></g></svg>